<svg xmlns="http://www.w3.org/2000/svg" viewBox="0 0 410 404"><path d="M399.641 59.5246L215.643 388.545c-3.79 6.779-13.501 6.82-17.348.075L10.582 59.6226c-4.196-7.354 2.176-16.218 10.521-14.616l184.341 32.962a10.629 10.629 0 0 0 3.701-.004l180.405-32.91c8.31-1.516 14.643 7.32 10.514 14.617" fill="url(#a)"/><path d="M292.965 1.5744l-136.272 27.092a7.566 7.566 0 0 0-6.094 6.965l-8.385 145.852a7.59 7.59 0 0 0 9.227 7.81l37.94-8.892c4.616-1.075 8.785 3.123 7.7 7.802L185.97 287.508c-1.122 4.871 3.36 9.135 8.151 7.766l23.395-7.117c4.792-1.379 9.276 2.91 8.144 7.787l-17.879 87.027c-1.652 7.105 7.789 11.063 11.668 4.808l2.582-4.196 110.911-221.376c2.451-4.892-1.789-10.477-7.165-9.448l-39.05 7.515c-4.838.93-8.953-3.581-7.604-8.348l25.515-88.336c1.348-4.793-2.748-9.305-7.673-8.354" fill="url(#b)"/><defs><linearGradient id="a" x1="6.0044" y1="32.9999" x2="235" y2="344" gradientUnits="userSpaceOnUse"><stop stop-color="#41D1FF"/><stop offset="1" stop-color="#BD34FE"/></linearGradient><linearGradient id="b" x1="194.651" y1="8.81818" x2="236.076" y2="292.989" gradientUnits="userSpaceOnUse"><stop stop-color="#FFEA83"/><stop offset=".0833" stop-color="#FFDD35"/><stop offset="1" stop-color="#FFA800"/></linearGradient></defs></svg>
